<svg xmlns="http://www.w3.org/2000/svg" xmlns:xlink="http://www.w3.org/1999/xlink" id="body_1" width="936" height="292"><g transform="matrix(0.65 0 0 0.65033406 0 0)"><path transform="matrix(1 0 0 1 -14 -0)"  d="M14 413.954C 104.836 408.595 190.206 363.579 270.111 278.90802C 389.968 151.9 364.01 105.164 563.005 148.686C 762 192.207 745.05 163.699 873 63.13C 1000.95 -37.44 1084 -14.424 1162 107.797C 1240 230.019 1313 270.69202 1446 315.575C 1534.667 345.496 1538.03 1163.86 1456.091 2770.665L1456.091 2770.665L14 2770.665L14 413.956L14 413.954z" stroke="none" fill="#181F2B" fill-rule="evenodd"/></g></svg>